<?xml version="1.0" encoding="UTF-8"?>
<svg id="Camada_2" data-name="Camada 2" xmlns="http://www.w3.org/2000/svg" viewBox="0 0 500 500">
  <defs>
    <style>
      .cls-1 {
        fill: #3ec35e;
      }

      .cls-1, .cls-2, .cls-3, .cls-4, .cls-5 {
        stroke-width: 0px;
      }

      .cls-2 {
        fill: #ff2e34;
      }

      .cls-3 {
        fill: #ffb90a;
      }

      .cls-4 {
        fill: #ffb808;
      }

      .cls-5 {
        fill: #00539b;
      }
    </style>
  </defs>
  <path class="cls-5" d="M418.66,413.88h-144.64c-1.96,20.63-19.37,36.82-40.5,36.82h-95.31v-.16l1.63-5.34h93.68c18.13,0,33.05-13.71,34.97-31.32.14-1.27.22-2.56.22-3.87h0c0-19.43-15.76-35.19-35.19-35.19H87c-.89,0-1.78.02-2.66.07-.29.01-.58.04-.88.06-.59.04-1.17.08-1.76.13-.34.03-.69.08-1.03.12-.53.06-1.05.12-1.57.2-.36.05-.72.11-1.08.17-.5.08-.99.17-1.49.27-.36.07-.73.14-1.09.22-.48.1-.96.22-1.44.33-.36.09-.72.18-1.08.27-.47.13-.94.26-1.41.4-.35.1-.7.2-1.05.31-.48.15-.95.32-1.43.48-.33.11-.66.22-.98.34-.57.21-1.13.44-1.69.67-.49.2-.97.41-1.45.62-.47.21-.94.41-1.41.64-.38.18-.76.38-1.14.57-.36.18-.72.36-1.07.55-.4.21-.79.44-1.19.66-.32.18-.64.36-.96.55-.41.24-.81.49-1.2.74-.29.18-.58.37-.87.56-.41.27-.82.54-1.22.82-.26.18-.51.36-.77.54-.42.3-.84.61-1.25.92-.21.16-.42.33-.63.5-.44.35-.88.7-1.31,1.06-.13.11-.25.22-.38.33-2.24,1.92-4.33,4.01-6.24,6.27-.01.02-.03.03-.04.05-.46.54-.9,1.1-1.34,1.66-.06.07-.11.14-.17.21-.42.55-.84,1.11-1.24,1.68-.06.08-.11.16-.17.24-.41.58-.8,1.16-1.18,1.75-.04.06-.08.12-.11.18-3.35,5.21-5.83,11.03-7.26,17.25h0c-.18.79-.34,1.58-.49,2.37-.58,3.2-.9,6.49-.9,9.86h0c0,30.16,24.45,54.61,54.61,54.61h331.66c19.38,0,35.08-15.71,35.08-35.08h0c0-19.38-15.71-35.08-35.08-35.08Z"/>
  <g id="Pessoa_3" data-name="Pessoa 3">
    <path class="cls-4" d="M446.97,229.33c-.6.61-1.05,1.05-1.33,1.31-1.79,1.68-7.5,6.15-14.94,9.09-7.83,3.1-14.32,3.14-22.5,2.43-13.62-1.19-23.61-5.25-29.16-7.56-9.88-4.11-16.88-8.69-23.4-12.96-3.66-2.4-5.8-3.98-8.35-5.91l-18.37,24.83c9.65,6.87,10.44,8.05,15.21,11.32,10.56,7.26,19.89,10.53,29.88,14.04.17.06.35.12.53.18-.58,2.53-1.37,5.28-2.48,8.19-1.4,3.68-2.91,6.59-3.96,8.46-2.03,3.61-4.3,6.61-8.82,12.6-2.27,3.01-3,3.85-4.86,6.48-1.55,2.19-2.1,3.1-4.5,6.66-4.68,6.96-4.25,5.99-5.4,7.92-.71,1.19-3.11,5.29-5.22,10.98-.92,2.47-.5,1.79-2.52,7.92-1.83,5.54-2.16,6.08-2.7,8.46-.81,3.61-.99,6.56-1.08,8.28-.15,2.81.06,2.79,0,7.92-.05,3.9-.17,3.95-.18,7.38-.01,3.8.13,6.57.18,7.38.14,2.59.35,4.79.54,6.48,10.44-1.26,20.88-2.52,31.32-3.78-.86-4.01-1.16-7.41-1.26-9.9-.13-3.31.09-5.93.54-11.16.39-4.55.6-6.88,1.26-9.36.66-2.49,1.41-4.19,2.88-7.56,1.07-2.44,2.22-5.08,4.14-8.28,1.76-2.93,1.7-2.23,4.5-6.66,1.19-1.88,2.19-3.57,3.96-5.94.81-1.09,1.52-1.96,1.98-2.52.08.94.14,1.9.18,2.88.17,3.71.08,7.2-.18,10.44,0,5.01-.25,9.33-.54,12.78-.27,3.23-.58,5.65-1.08,9.54-.2,1.54-.79,6.11-1.8,12.42-.73,4.57-.8,4.57-1.8,10.62-.95,5.76-1.1,7.04-1.8,11.34-.55,3.36-1.38,8.17-2.52,14.04,10.08,1.98,20.16,3.96,30.24,5.94.87-3.82,2.04-9.19,3.24-15.66.64-3.47,1.92-10.6,3.78-24.66,1.88-14.19,2.82-21.28,3.42-29.7.94-13.23.82-23.31.72-29.7-.14-9.09-.64-20.15-1.9-32.72,4.1-.03,7.48-.3,9.43-.49,4.46-.43,9.61-.95,16.2-2.88,7.01-2.06,12.17-4.69,14.76-6.12,2.27-1.25,4.31-2.38,6.84-4.32,3.18-2.44,4.16-3.88,6.94-6l-20.01-24.47Z"/>
    <circle class="cls-3" cx="398.73" cy="212.4" r="19.8" transform="translate(125.2 571.95) rotate(-80.78)"/>
  </g>
  <g>
    <circle class="cls-1" cx="237.07" cy="151.33" r="19.8" transform="translate(-21.18 39.93) rotate(-9.22)"/>
    <path class="cls-1" d="M339.8,210.12c-13.44-9.83-20.83-15.24-30.6-20.16-15.68-7.9-29.28-10.41-33.84-11.16-6.82-1.12-17.24-2.74-30.6-.72-12.5,1.89-21.4,6.02-28.44,9.36-13.83,6.55-22.65,13.93-24.48,15.48-1.8,1.53-8.28,7.13-15.12,15.84-7.7,9.81-13.41,20.43-14.04,21.6-.11.2-.23.43-.35.66l27.96,13.83c.15-.26.3-.53.46-.81,7.34-12.8,8.85-14.78,9.72-15.84,4.15-5.06,8.09-8.33,11.52-11.16,2.18-1.79,7.24-5.93,13.32-9.36.1-.06.21-.12.32-.18,0,1.42,0,2.92.04,4.5.16,6.87.63,8.62.72,13.68.15,8.7-1.05,15.24-2.16,21.24-1.44,7.84-3.17,13.37-5.76,21.6-1.7,5.4-1.97,5.77-7.2,20.52-10.42,29.39-8.19,23.73-10.08,29.16-1.32,3.79-2.92,9.53-3.69,13.23-.41,1.97-1.05,4.59-2.07,10.53-.73,4.22-1.11,5.22-2.16,10.8-.62,3.27-1.06,5.65-1.3,7.31h32.34c.16-3.13.52-7.24,1.37-11.99.88-4.94,1.77-7.66,5.4-19.44,5.69-18.45,5.33-17.68,6.48-20.88,2.48-6.93,3.54-8.84,6.84-18,1.93-5.34,3.39-9.74,4.32-12.6.11,4.16.03,8.74-.36,13.68-.35,4.38-.75,6-2.16,15.48-1.24,8.37-1.89,12.68-2.52,18.36-.44,3.97-.78,8.05-1.44,16.2-.5,6.07-.8,9.76-1.08,14.4-.12,1.98-.23,3.73-.32,5.32,13.91,2.26,25.48,11.59,30.88,24.18,0-5.48.09-12.17.41-19.79.41-9.87,1.11-18.85,2.88-36,3.81-36.86,4.61-34.1,5.4-48.6.91-16.7,1.57-28.71-1.08-43.92-1.3-7.47-4.15-20.06-6.48-29.52-.67-2.73-1.3-5.21-1.87-7.39,6.45,1.22,12.02,3.22,16.63,4.87,5.87,2.11,9.19,3.85,10.08,4.32,5.74,3.05,7.89,5.29,14.76,10.44,3.3,2.47,4.91,3.54,6.86,4.8l20.59-23.82s-.06-.04-.09-.07Z"/>
  </g>
  <g id="Pessoa_1" data-name="Pessoa 1">
    <path class="cls-2" d="M158.28,248.29c-.92,1.54-1.96,3.21-3.16,5.03-3.19,4.8-5.07,6.94-6.84,8.64-1.6,1.54-4.64,4.46-9,6.48-3.25,1.5-7.21,2.49-16.56,2.16-8.39-.3-11.05-1.31-18.72-2.16-6.1-.68-15.69-1.68-27,0-6.91,1.03-19.26,4.59-27.45,10.53s-8.55,7.2-13.59,12.87c-.24.26-.44.5-.64.72l.02.02c.18-.2.3-.33.3-.33-.09.12-.17.24-.26.37l23.73,20.07s.04-.05.06-.08c1.74-2.27,4.79-5.66,9.72-8.88,2.04-1.33,5.57-3.13,10.26-3.96,4.78-.85,8.22-.5,9.72-.36.4.04.83.08,1.24.12-1.87,3.23-3.15,5.25-5.62,9.84-1.66,3.09-3.22,6-5.04,10.08-1.93,4.32-3.2,7.79-3.96,9.9-1.14,3.15-1.71,4.73-2.34,7.02-.38,1.38-1.36,5.14-1.98,10.26-.14,1.18-.02.4-.54,6.48-.5,5.84-.63,6.8-.72,9.36-.09,2.63-.05,4.67,0,6.12.05,1.38.12,2.45.18,3.19,5.44-1.62,11.19-2.51,17.15-2.51h13.5c.15-4.37.04-5.94.14-9.5,0,0,.16-5.55,1.8-12.24.23-.94.6-2.34,1.08-2.34.59,0,.99,2.11,1.62,5.04.72,3.37,1.57,6.72,2.34,10.08.5,2.18,1.27,5.27,2.45,8.96h35.24c-1.79-3.38-3.17-6.43-4.21-8.96-1.5-3.65-2.42-6.5-2.7-7.38-.58-1.81-1.11-3.87-2.16-7.92-1.01-3.89-1.51-5.84-2.16-8.64-1.06-4.57-1.59-6.9-1.8-9.18-.12-1.33-.14-3.28-.18-7.2-.02-1.64,0-1.92,0-7.2v-11.62c2.1-.16,4.11-.38,6-.68,4.12-.66,8.67-1.7,13.68-3.96,5.07-2.29,8.81-5.02,10.8-6.48.99-.73,3.97-2.97,7.56-6.48,7-6.85,11.17-13.49,14.4-18.72.19-.3.34-.55.48-.78l-26.83-15.77Z"/>
    <circle class="cls-2" cx="116.44" cy="243.4" r="19.8" transform="translate(-138 153.63) rotate(-45)"/>
  </g>
  <path id="Mão_De_Cima" data-name="Mão De Cima" class="cls-5" d="M425.2,76.17c-3.12-2.79-6.8-5.07-10.96-6.62l-137.65-51.3c-7.74-2.89-16.27-2.9-24.02-.03L75.93,83.56c-17.87,6.61-27,26.46-20.39,44.33,5.15,13.92,18.34,22.54,32.36,22.54,3.98,0,8.02-.69,11.96-2.15l114.26-42.26c-4.51-9.48-5.37-20.68-1.48-31.29l.04-.11c5.82-15.86,21.07-26.52,37.96-26.52,4.74,0,9.43.83,13.92,2.48l89.75,32.92c-1.44,1.55-2.8,3.19-4.06,4.9l-87.76-32.19c-3.91-1.43-7.92-2.11-11.85-2.11-14.03,0-27.21,8.64-32.33,22.58l-.04.11c-3.39,9.23-2.56,18.98,1.49,27.14,3.78,7.62,10.36,13.87,18.98,17.03l133.08,48.81c2.27,1.02,4.63,1.89,7.06,2.59l1.49.55.04-.11c4.33,1.11,8.86,1.71,13.54,1.71,29.9,0,54.14-24.24,54.14-54.14,0-18.25-9.04-34.38-22.88-44.19Z"/>
</svg>