<?xml version="1.0" encoding="UTF-8"?>
<svg id="Camada_2" data-name="Camada 2" xmlns="http://www.w3.org/2000/svg" viewBox="0 0 1219 349">
  <defs>
    <style>
      .cls-1 {
        fill: #3ec35e;
      }

      .cls-1, .cls-2, .cls-3, .cls-4, .cls-5 {
        stroke-width: 0px;
      }

      .cls-2 {
        fill: #ff2e34;
      }

      .cls-6 {
        font-family: Verdana, Verdana;
        font-size: 190.31px;
      }

      .cls-6, .cls-7, .cls-5 {
        fill: #00539b;
      }

      .cls-3 {
        fill: #ffb90a;
      }

      .cls-7 {
        font-family: Verdana-Bold, Verdana;
        font-size: 144.7px;
        font-weight: 700;
      }

      .cls-4 {
        fill: #ffb808;
      }
    </style>
  </defs>
  <path class="cls-5" d="M277.99,288.48h-101.77c-1.38,14.52-13.63,25.91-28.5,25.91h-67.06v-.11l1.15-3.76h65.92c12.76,0,23.25-9.65,24.61-22.04.1-.89.15-1.8.15-2.72h0c0-13.67-11.09-24.76-24.76-24.76H44.63c-.63,0-1.25.01-1.87.05-.2,0-.41.03-.62.04-.42.03-.82.06-1.24.09-.24.02-.49.06-.72.08-.37.04-.74.08-1.1.14-.25.04-.51.08-.76.12-.35.06-.7.12-1.05.19-.25.05-.51.1-.77.15-.34.07-.68.15-1.01.23l-.76.19c-.33.09-.66.18-.99.28-.25.07-.49.14-.74.22-.34.11-.67.23-1.01.34-.23.08-.46.15-.69.24-.4.15-.8.31-1.19.47-.34.14-.68.29-1.02.44-.33.15-.66.29-.99.45-.27.13-.53.27-.8.4-.25.13-.51.25-.75.39-.28.15-.56.31-.84.46-.23.13-.45.25-.68.39-.29.17-.57.34-.84.52-.2.13-.41.26-.61.39-.29.19-.58.38-.86.58-.18.13-.36.25-.54.38-.3.21-.59.43-.88.65-.15.11-.3.23-.44.35-.31.25-.62.49-.92.75-.09.08-.18.15-.27.23-1.58,1.35-3.05,2.82-4.39,4.41,0,.01-.02.02-.03.04-.32.38-.63.77-.94,1.17-.04.05-.08.1-.12.15-.3.39-.59.78-.87,1.18-.04.06-.08.11-.12.17-.29.41-.56.82-.83,1.23-.03.04-.06.08-.08.13-2.36,3.67-4.1,7.76-5.11,12.14h0c-.13.56-.24,1.11-.34,1.67-.41,2.25-.63,4.57-.63,6.94h0c0,21.22,17.2,38.43,38.43,38.43h233.36c13.64,0,24.68-11.05,24.68-24.68h0c0-13.64-11.05-24.68-24.68-24.68h.01Z"/>
  <g id="Pessoa_3" data-name="Pessoa 3">
    <path class="cls-4" d="M297.91,158.62c-.42.43-.74.74-.94.92-1.26,1.18-5.28,4.33-10.51,6.4-5.51,2.18-10.08,2.21-15.83,1.71-9.58-.84-16.61-3.69-20.52-5.32-6.95-2.89-11.88-6.11-16.46-9.12-2.58-1.69-4.08-2.8-5.88-4.16l-12.93,17.47c6.79,4.83,7.35,5.66,10.7,7.97,7.43,5.11,14,7.41,21.02,9.88.12.04.25.08.37.13-.41,1.78-.96,3.72-1.75,5.76-.99,2.59-2.05,4.64-2.79,5.95-1.43,2.54-3.03,4.65-6.21,8.87-1.6,2.12-2.11,2.71-3.42,4.56-1.09,1.54-1.48,2.18-3.17,4.69-3.29,4.9-2.99,4.21-3.8,5.57-.5.84-2.19,3.72-3.67,7.73-.65,1.74-.35,1.26-1.77,5.57-1.29,3.9-1.52,4.28-1.9,5.95-.57,2.54-.7,4.62-.76,5.83-.11,1.98.04,1.96,0,5.57-.04,2.74-.12,2.78-.13,5.19,0,2.67.09,4.62.13,5.19.1,1.82.25,3.37.38,4.56,7.35-.89,14.69-1.77,22.04-2.66-.61-2.82-.82-5.21-.89-6.97-.09-2.33.06-4.17.38-7.85.27-3.2.42-4.84.89-6.59.46-1.75.99-2.95,2.03-5.32.75-1.72,1.56-3.57,2.91-5.83,1.24-2.06,1.2-1.57,3.17-4.69.84-1.32,1.54-2.51,2.79-4.18.57-.77,1.07-1.38,1.39-1.77.06.66.1,1.34.13,2.03.12,2.61.06,5.07-.13,7.35,0,3.53-.18,6.56-.38,8.99-.19,2.27-.41,3.98-.76,6.71-.14,1.08-.56,4.3-1.27,8.74-.51,3.22-.56,3.22-1.27,7.47-.67,4.05-.77,4.95-1.27,7.98-.39,2.36-.97,5.75-1.77,9.88,7.09,1.39,14.19,2.79,21.28,4.18.61-2.69,1.44-6.47,2.28-11.02.45-2.44,1.35-7.46,2.66-17.35,1.32-9.98,1.98-14.97,2.41-20.9.66-9.31.58-16.4.51-20.9-.1-6.4-.45-14.18-1.34-23.02,2.88-.02,5.26-.21,6.64-.34,3.14-.3,6.76-.67,11.4-2.03,4.93-1.45,8.56-3.3,10.39-4.31,1.6-.88,3.03-1.67,4.81-3.04,2.24-1.72,2.93-2.73,4.88-4.22l-14.08-17.22h0Z"/>
    <circle class="cls-3" cx="263.98" cy="146.71" r="13.93" transform="translate(76.87 383.77) rotate(-80.78)"/>
  </g>
  <g>
    <circle class="cls-1" cx="150.23" cy="103.73" r="13.93"/>
    <path class="cls-1" d="M222.51,145.11c-9.46-6.92-14.66-10.72-21.53-14.19-11.03-5.56-20.6-7.32-23.81-7.85-4.8-.79-12.13-1.93-21.53-.51-8.8,1.33-15.06,4.24-20.01,6.59-9.73,4.61-15.94,9.8-17.22,10.89-1.27,1.08-5.83,5.02-10.64,11.15-5.42,6.9-9.44,14.38-9.88,15.2-.08.14-.16.3-.25.46l19.67,9.73c.11-.18.21-.37.32-.57,5.16-9.01,6.23-10.4,6.84-11.15,2.92-3.56,5.69-5.86,8.11-7.85,1.53-1.26,5.09-4.17,9.37-6.59.07-.04.15-.08.23-.13,0,1,0,2.05.03,3.17.11,4.83.44,6.07.51,9.63.11,6.12-.74,10.72-1.52,14.95-1.01,5.52-2.23,9.41-4.05,15.2-1.2,3.8-1.39,4.06-5.07,14.44-7.33,20.68-5.76,16.7-7.09,20.52-.93,2.67-2.05,6.71-2.6,9.31-.29,1.39-.74,3.23-1.46,7.41-.51,2.97-.78,3.67-1.52,7.6-.44,2.3-.75,3.98-.91,5.14h22.76c.11-2.2.37-5.09.96-8.44.62-3.48,1.25-5.39,3.8-13.68,4-12.98,3.75-12.44,4.56-14.69,1.74-4.88,2.49-6.22,4.81-12.67,1.36-3.76,2.39-6.85,3.04-8.87.08,2.93.02,6.15-.25,9.63-.25,3.08-.53,4.22-1.52,10.89-.87,5.89-1.33,8.92-1.77,12.92-.31,2.79-.55,5.66-1.01,11.4-.35,4.27-.56,6.87-.76,10.13-.08,1.39-.16,2.62-.23,3.74,9.79,1.59,17.93,8.16,21.73,17.01,0-3.86.06-8.56.29-13.92.29-6.94.78-13.26,2.03-25.33,2.68-25.94,3.24-23.99,3.8-34.2.64-11.75,1.1-20.2-.76-30.9-.91-5.26-2.92-14.11-4.56-20.77-.47-1.92-.91-3.67-1.32-5.2,4.54.86,8.46,2.27,11.7,3.43,4.13,1.48,6.47,2.71,7.09,3.04,4.04,2.15,5.55,3.72,10.39,7.35,2.32,1.74,3.45,2.49,4.83,3.38l14.49-16.76s-.04-.03-.06-.05h0Z"/>
  </g>
  <g id="Pessoa_1" data-name="Pessoa 1">
    <path class="cls-2" d="M94.78,171.96c-.65,1.08-1.38,2.26-2.22,3.54-2.24,3.38-3.57,4.88-4.81,6.08-1.13,1.08-3.26,3.14-6.33,4.56-2.29,1.06-5.07,1.75-11.65,1.52-5.9-.21-7.78-.92-13.17-1.52-4.29-.48-11.04-1.18-19,0-4.86.72-13.55,3.23-19.31,7.41s-6.02,5.07-9.56,9.06c-.17.18-.31.35-.45.51h.01c.13-.13.21-.22.21-.22-.06.08-.12.17-.18.26l16.7,14.12s.03-.04.04-.06c1.22-1.6,3.37-3.98,6.84-6.25,1.44-.94,3.92-2.2,7.22-2.79,3.36-.6,5.78-.35,6.84-.25.28.03.58.06.87.08-1.32,2.27-2.22,3.69-3.95,6.92-1.17,2.17-2.27,4.22-3.55,7.09-1.36,3.04-2.25,5.48-2.79,6.97-.8,2.22-1.2,3.33-1.65,4.94-.27.97-.96,3.62-1.39,7.22-.1.83-.01.28-.38,4.56-.35,4.11-.44,4.78-.51,6.59-.06,1.85-.04,3.29,0,4.31.04.97.08,1.72.13,2.24,3.83-1.14,7.87-1.77,12.07-1.77h9.5c.11-3.07.03-4.18.1-6.68,0,0,.11-3.91,1.27-8.61.16-.66.42-1.65.76-1.65.42,0,.7,1.48,1.14,3.55.51,2.37,1.1,4.73,1.65,7.09.35,1.53.89,3.71,1.72,6.3h24.8c-1.26-2.38-2.23-4.52-2.96-6.3-1.06-2.57-1.7-4.57-1.9-5.19-.41-1.27-.78-2.72-1.52-5.57-.71-2.74-1.06-4.11-1.52-6.08-.75-3.22-1.12-4.86-1.27-6.46-.08-.94-.1-2.31-.13-5.07-.01-1.15,0-1.35,0-5.07v-8.18c1.48-.11,2.89-.27,4.22-.48,2.9-.46,6.1-1.2,9.63-2.79,3.57-1.61,6.2-3.53,7.6-4.56.7-.51,2.79-2.09,5.32-4.56,4.93-4.82,7.86-9.49,10.13-13.17.13-.21.24-.39.34-.55l-18.88-11.1h0Z"/>
    <circle class="cls-2" cx="65.35" cy="168.53" r="13.93" transform="translate(-100.03 95.57) rotate(-45)"/>
  </g>
  <path id="Mão_De_Cima" data-name="Mão De Cima" class="cls-5" d="M282.6,50.86c-2.2-1.96-4.78-3.57-7.71-4.66L178.03,10.1c-5.45-2.03-11.45-2.04-16.9-.02L36.84,56.05c-12.57,4.65-19,18.62-14.35,31.19,3.62,9.79,12.9,15.86,22.77,15.86,2.8,0,5.64-.49,8.42-1.51l80.4-29.74c-3.17-6.67-3.78-14.55-1.04-22.02l.03-.08c4.1-11.16,14.83-18.66,26.71-18.66,3.34,0,6.64.58,9.79,1.74l63.15,23.16c-1.01,1.09-1.97,2.24-2.86,3.45l-61.75-22.65c-2.75-1.01-5.57-1.48-8.34-1.48-9.87,0-19.15,6.08-22.75,15.89l-.03.08c-2.39,6.49-1.8,13.35,1.05,19.1,2.66,5.36,7.29,9.76,13.35,11.98l93.64,34.34c1.6.72,3.26,1.33,4.97,1.82l1.05.39.03-.08c3.05.78,6.23,1.2,9.53,1.2,21.04,0,38.09-17.06,38.09-38.09,0-12.84-6.36-24.19-16.1-31.09h0Z"/>
  <text class="cls-7" transform="translate(326.72 164.1)"><tspan x="0" y="0">CONSELHO</tspan></text>
  <text class="cls-6" transform="translate(333.79 324.32) rotate(.07) scale(1.01 1)"><tspan x="0" y="0">TUTELAR</tspan></text>
</svg>